<mxfile modified="2024-04-08T20:42:56.739Z" host="app.diagrams.net" agent="Mozilla/5.0 (Windows NT 10.0; Win64; x64) AppleWebKit/537.36 (KHTML, like Gecko) Chrome/123.0.0.0 Safari/537.36" etag="qTdhrgJ2Zp45-DVDdyxG" version="24.2.2" type="github" pages="2">
  <diagram id="7gcUSTIZ7YSJ5vT40chW" name="Page-1">
    <mxGraphModel dx="1434" dy="866" grid="1" gridSize="10" guides="1" tooltips="1" connect="1" arrows="1" fold="1" page="1" pageScale="1" pageWidth="1169" pageHeight="827" math="0" shadow="0">
      <root>
        <mxCell id="0" />
        <mxCell id="1" parent="0" />
        <mxCell id="foKkk4biJ4Mzu0r1IqwP-2" style="edgeStyle=orthogonalEdgeStyle;rounded=0;orthogonalLoop=1;jettySize=auto;html=1;entryX=0.5;entryY=-0.06;entryDx=0;entryDy=0;entryPerimeter=0;" parent="1" source="foKkk4biJ4Mzu0r1IqwP-1" target="C1Hb5nuXclus8YE3PItr-12" edge="1">
          <mxGeometry relative="1" as="geometry" />
        </mxCell>
        <mxCell id="C1Hb5nuXclus8YE3PItr-3" value="" style="swimlane;startSize=0;dashed=1;dashPattern=8 8;" parent="1" vertex="1">
          <mxGeometry x="300" y="248.5" width="130" height="271.5" as="geometry">
            <mxRectangle x="270" y="224.5" width="50" height="40" as="alternateBounds" />
          </mxGeometry>
        </mxCell>
        <mxCell id="C1Hb5nuXclus8YE3PItr-13" style="edgeStyle=orthogonalEdgeStyle;rounded=0;orthogonalLoop=1;jettySize=auto;html=1;exitX=1;exitY=0.5;exitDx=0;exitDy=0;" parent="1" source="C1Hb5nuXclus8YE3PItr-5" target="C1Hb5nuXclus8YE3PItr-12" edge="1">
          <mxGeometry relative="1" as="geometry">
            <mxPoint x="565" y="365" as="targetPoint" />
            <Array as="points">
              <mxPoint x="480" y="287" />
              <mxPoint x="480" y="365" />
            </Array>
          </mxGeometry>
        </mxCell>
        <mxCell id="C1Hb5nuXclus8YE3PItr-15" style="edgeStyle=orthogonalEdgeStyle;rounded=0;orthogonalLoop=1;jettySize=auto;html=1;exitX=1;exitY=0.5;exitDx=0;exitDy=0;" parent="1" source="C1Hb5nuXclus8YE3PItr-8" target="C1Hb5nuXclus8YE3PItr-12" edge="1">
          <mxGeometry relative="1" as="geometry">
            <mxPoint x="570" y="490" as="targetPoint" />
            <mxPoint x="410" y="652.5" as="sourcePoint" />
            <Array as="points">
              <mxPoint x="480" y="457" />
              <mxPoint x="480" y="365" />
            </Array>
          </mxGeometry>
        </mxCell>
        <mxCell id="7d_rvJGK85zuiHPVN85m-5" style="edgeStyle=orthogonalEdgeStyle;rounded=0;orthogonalLoop=1;jettySize=auto;html=1;" parent="1" source="C1Hb5nuXclus8YE3PItr-19" target="7d_rvJGK85zuiHPVN85m-3" edge="1">
          <mxGeometry relative="1" as="geometry" />
        </mxCell>
        <mxCell id="7d_rvJGK85zuiHPVN85m-11" style="edgeStyle=orthogonalEdgeStyle;rounded=0;orthogonalLoop=1;jettySize=auto;html=1;" parent="1" source="C1Hb5nuXclus8YE3PItr-19" target="C1Hb5nuXclus8YE3PItr-12" edge="1">
          <mxGeometry relative="1" as="geometry">
            <Array as="points">
              <mxPoint x="550" y="430" />
              <mxPoint x="550" y="430" />
            </Array>
          </mxGeometry>
        </mxCell>
        <mxCell id="C1Hb5nuXclus8YE3PItr-19" value="Notification Generation&lt;div&gt;Function&lt;/div&gt;" style="image;sketch=0;aspect=fixed;html=1;points=[];align=center;fontSize=12;image=img/lib/mscae/Functions.svg;" parent="1" vertex="1">
          <mxGeometry x="535" y="472" width="50" height="46" as="geometry" />
        </mxCell>
        <mxCell id="7d_rvJGK85zuiHPVN85m-7" style="edgeStyle=orthogonalEdgeStyle;rounded=0;orthogonalLoop=1;jettySize=auto;html=1;" parent="1" source="C1Hb5nuXclus8YE3PItr-21" target="7d_rvJGK85zuiHPVN85m-2" edge="1">
          <mxGeometry relative="1" as="geometry" />
        </mxCell>
        <mxCell id="C1Hb5nuXclus8YE3PItr-21" value="frontend" style="verticalLabelPosition=bottom;html=1;verticalAlign=top;align=center;strokeColor=none;fillColor=#00BEF2;shape=mxgraph.azure.computer;pointerEvents=1;" parent="1" vertex="1">
          <mxGeometry x="900" y="224.5" width="50" height="45" as="geometry" />
        </mxCell>
        <mxCell id="7d_rvJGK85zuiHPVN85m-1" value="" style="edgeStyle=orthogonalEdgeStyle;rounded=0;orthogonalLoop=1;jettySize=auto;html=1;exitX=1;exitY=0.5;exitDx=0;exitDy=0;entryX=0;entryY=0.5;entryDx=0;entryDy=0;" parent="1" source="C1Hb5nuXclus8YE3PItr-7" target="C1Hb5nuXclus8YE3PItr-12" edge="1">
          <mxGeometry relative="1" as="geometry">
            <mxPoint x="565" y="365" as="targetPoint" />
            <mxPoint x="379" y="403" as="sourcePoint" />
            <Array as="points">
              <mxPoint x="450" y="365" />
              <mxPoint x="450" y="365" />
            </Array>
          </mxGeometry>
        </mxCell>
        <mxCell id="7d_rvJGK85zuiHPVN85m-4" style="edgeStyle=orthogonalEdgeStyle;rounded=0;orthogonalLoop=1;jettySize=auto;html=1;" parent="1" source="C1Hb5nuXclus8YE3PItr-12" target="C1Hb5nuXclus8YE3PItr-19" edge="1">
          <mxGeometry relative="1" as="geometry">
            <Array as="points">
              <mxPoint x="570" y="480" />
              <mxPoint x="570" y="480" />
            </Array>
          </mxGeometry>
        </mxCell>
        <mxCell id="7d_rvJGK85zuiHPVN85m-6" value="CosmoDB-Trigger" style="edgeLabel;html=1;align=center;verticalAlign=middle;resizable=0;points=[];" parent="7d_rvJGK85zuiHPVN85m-4" vertex="1" connectable="0">
          <mxGeometry x="0.0829" y="1" relative="1" as="geometry">
            <mxPoint x="39" y="6" as="offset" />
          </mxGeometry>
        </mxCell>
        <mxCell id="C1Hb5nuXclus8YE3PItr-12" value="CosmosDB" style="image;sketch=0;aspect=fixed;html=1;points=[];align=center;fontSize=12;image=img/lib/mscae/CosmosDB.svg;" parent="1" vertex="1">
          <mxGeometry x="535" y="340" width="50" height="50" as="geometry" />
        </mxCell>
        <mxCell id="ejgO_KiSoNN0elxwD4rP-3" value="" style="edgeStyle=orthogonalEdgeStyle;rounded=0;orthogonalLoop=1;jettySize=auto;html=1;" parent="1" source="7d_rvJGK85zuiHPVN85m-2" target="ejgO_KiSoNN0elxwD4rP-1" edge="1">
          <mxGeometry relative="1" as="geometry" />
        </mxCell>
        <mxCell id="7d_rvJGK85zuiHPVN85m-2" value="Azure Static Web App" style="image;aspect=fixed;html=1;points=[];align=center;fontSize=12;image=img/lib/azure2/preview/Static_Apps.svg;" parent="1" vertex="1">
          <mxGeometry x="890" y="337" width="70" height="56.00000000000001" as="geometry" />
        </mxCell>
        <mxCell id="7d_rvJGK85zuiHPVN85m-3" value="Azure Communication&amp;nbsp;&lt;div&gt;Service&lt;/div&gt;" style="image;aspect=fixed;html=1;points=[];align=center;fontSize=12;image=img/lib/azure2/other/Azure_Communication_Services.svg;" parent="1" vertex="1">
          <mxGeometry x="670" y="470" width="68" height="50" as="geometry" />
        </mxCell>
        <mxCell id="7d_rvJGK85zuiHPVN85m-10" style="edgeStyle=orthogonalEdgeStyle;rounded=0;orthogonalLoop=1;jettySize=auto;html=1;" parent="1" source="7d_rvJGK85zuiHPVN85m-8" target="C1Hb5nuXclus8YE3PItr-12" edge="1">
          <mxGeometry relative="1" as="geometry" />
        </mxCell>
        <mxCell id="7d_rvJGK85zuiHPVN85m-8" value="Serverless&amp;nbsp;&lt;div&gt;Backend API&lt;/div&gt;" style="image;sketch=0;aspect=fixed;html=1;points=[];align=center;fontSize=12;image=img/lib/mscae/Functions.svg;" parent="1" vertex="1">
          <mxGeometry x="650" y="342" width="50" height="46" as="geometry" />
        </mxCell>
        <mxCell id="JG4yAsfect5d4OWR5Uj--1" value="Azure Active Directory" style="verticalLabelPosition=bottom;html=1;verticalAlign=top;align=center;strokeColor=none;fillColor=#00BEF2;shape=mxgraph.azure.azure_active_directory;" parent="1" vertex="1">
          <mxGeometry x="901.25" y="470" width="47.5" height="50" as="geometry" />
        </mxCell>
        <mxCell id="JG4yAsfect5d4OWR5Uj--2" style="edgeStyle=orthogonalEdgeStyle;rounded=0;orthogonalLoop=1;jettySize=auto;html=1;entryX=0.51;entryY=0;entryDx=0;entryDy=0;entryPerimeter=0;" parent="1" source="7d_rvJGK85zuiHPVN85m-2" target="JG4yAsfect5d4OWR5Uj--1" edge="1">
          <mxGeometry relative="1" as="geometry" />
        </mxCell>
        <mxCell id="ejgO_KiSoNN0elxwD4rP-2" value="" style="edgeStyle=orthogonalEdgeStyle;rounded=0;orthogonalLoop=1;jettySize=auto;html=1;" parent="1" source="ejgO_KiSoNN0elxwD4rP-1" target="7d_rvJGK85zuiHPVN85m-8" edge="1">
          <mxGeometry relative="1" as="geometry" />
        </mxCell>
        <mxCell id="ejgO_KiSoNN0elxwD4rP-1" value="API Management&lt;div&gt;(RBAC, Monitoring, ...)&lt;/div&gt;" style="image;aspect=fixed;html=1;points=[];align=center;fontSize=12;image=img/lib/azure2/app_services/API_Management_Services.svg;" parent="1" vertex="1">
          <mxGeometry x="760" y="335" width="65" height="60" as="geometry" />
        </mxCell>
        <mxCell id="C1Hb5nuXclus8YE3PItr-5" value="Ã–SW Scraper" style="shape=image;verticalLabelPosition=bottom;labelBackgroundColor=#ffffff;verticalAlign=top;aspect=fixed;imageAspect=0;image=data:image/svg+xml,PHN2ZyB4bWxuczpjYz0iaHR0cDovL2NyZWF0aXZlY29tbW9ucy5vcmcvbnMjIiB4bWxuczpkYz0iaHR0cDovL3B1cmwub3JnL2RjL2VsZW1lbnRzLzEuMS8iIHhtbG5zOmlua3NjYXBlPSJodHRwOi8vd3d3Lmlua3NjYXBlLm9yZy9uYW1lc3BhY2VzL2lua3NjYXBlIiB4bWxuczpyZGY9Imh0dHA6Ly93d3cudzMub3JnLzE5OTkvMDIvMjItcmRmLXN5bnRheC1ucyMiIHhtbG5zOnNvZGlwb2RpPSJodHRwOi8vc29kaXBvZGkuc291cmNlZm9yZ2UubmV0L0RURC9zb2RpcG9kaS0wLmR0ZCIgeG1sbnM6c3ZnPSJodHRwOi8vd3d3LnczLm9yZy8yMDAwL3N2ZyIgeG1sbnM9Imh0dHA6Ly93d3cudzMub3JnLzIwMDAvc3ZnIiB4bWxuczp4bGluaz0iaHR0cDovL3d3dy53My5vcmcvMTk5OS94bGluayIgdmVyc2lvbj0iMS4xIiBpZD0ic3ZnNTg1MzciIGlua3NjYXBlOnZlcnNpb249IjAuOTIuMyAoMjQwNTU0NiwgMjAxOC0wMy0xMSkiIHNvZGlwb2RpOmRvY25hbWU9ImF6dXJlX2Z1bmN0aW9ucy5zdmciIHg9IjBweCIgeT0iMHB4IiB2aWV3Qm94PSIwIDAgNTcuMzEgNTIuODEiIHN0eWxlPSJlbmFibGUtYmFja2dyb3VuZDpuZXcgMCAwIDU3LjMxIDUyLjgxOyIgeG1sOnNwYWNlPSJwcmVzZXJ2ZSI+JiN4YTs8c29kaXBvZGk6bmFtZWR2aWV3IGJvcmRlcmNvbG9yPSIjNjY2NjY2IiBib3JkZXJvcGFjaXR5PSIxIiBmaXQtbWFyZ2luLWJvdHRvbT0iMCIgZml0LW1hcmdpbi1sZWZ0PSIwIiBmaXQtbWFyZ2luLXJpZ2h0PSIwIiBmaXQtbWFyZ2luLXRvcD0iMCIgZ3JpZHRvbGVyYW5jZT0iMTAiIGd1aWRldG9sZXJhbmNlPSIxMCIgaWQ9Im5hbWVkdmlldzU4NTM5IiBpbmtzY2FwZTpjdXJyZW50LWxheWVyPSJzdmc1ODUzNyIgaW5rc2NhcGU6Y3g9IjM5LjQ3MTQ0MiIgaW5rc2NhcGU6Y3k9IjI2LjM0NTIxNyIgaW5rc2NhcGU6cGFnZW9wYWNpdHk9IjAiIGlua3NjYXBlOnBhZ2VzaGFkb3c9IjIiIGlua3NjYXBlOndpbmRvdy1oZWlnaHQ9IjEwMTciIGlua3NjYXBlOndpbmRvdy1tYXhpbWl6ZWQ9IjEiIGlua3NjYXBlOndpbmRvdy13aWR0aD0iMTkyMCIgaW5rc2NhcGU6d2luZG93LXg9Ii04IiBpbmtzY2FwZTp3aW5kb3cteT0iLTgiIGlua3NjYXBlOnpvb209IjYuMzkxNjgyOCIgb2JqZWN0dG9sZXJhbmNlPSIxMCIgcGFnZWNvbG9yPSIjZmZmZmZmIiBzaG93Z3JpZD0iZmFsc2UiPiYjeGE7CTwvc29kaXBvZGk6bmFtZWR2aWV3PiYjeGE7PGcgaWQ9Imc1ODUzNSIgdHJhbnNmb3JtPSJ0cmFuc2xhdGUoLTkuNTYzNDE2MSwtOS41Njc2MDUyKSI+JiN4YTsJPHRpdGxlIGlkPSJ0aXRsZTU4NTEwIj5QYWdlLTE8L3RpdGxlPiYjeGE7CTxnIGlkPSJncm91cDQ0MzYtMSIgdHJhbnNmb3JtPSJ0cmFuc2xhdGUoOS4zOTU0MywtOS41NjI1KSI+JiN4YTsJCTx0aXRsZSBpZD0idGl0bGU1ODUxMiI+QXp1cmUgRnVuY3Rpb25zLjQzNzwvdGl0bGU+JiN4YTsJCTxnIGlkPSJzaGFwZTQ0MzctMiIgdHJhbnNmb3JtPSJ0cmFuc2xhdGUoMzkuMjA1OSwtMTAuMjkzOCkiPiYjeGE7CQkJPHRpdGxlIGlkPSJ0aXRsZTU4NTE0Ij5TaGVldC40NDM3PC90aXRsZT4mI3hhOwkJCTxwYXRoIGlkPSJwYXRoNTg1MTYiIGlua3NjYXBlOmNvbm5lY3Rvci1jdXJ2YXR1cmU9IjAiIHN0eWxlPSJmaWxsOiMzOTk5QzY7IiBkPSJNMTcuOSw1Ni4xOGMwLjU0LTAuNTMsMC40NS0xLjUyLDAtMi4wNiAgICAgbC0yLjc3LTIuNzdsLTEyLjM2LTEyYy0wLjUzLTAuNTMtMS4zNC0wLjUzLTEuOTYsMGMtMC41NCwwLjU0LTAuNzIsMS41MywwLDIuMDZsMTIuOTcsMTIuNzFjMC41NCwwLjU0LDAuNTQsMS41MywwLDIuMDYgICAgIEwwLjU0LDY5LjM0QzAsNjkuODgsMCw3MC44NiwwLjU0LDcxLjRjMC41MywwLjU0LDEuNTIsMC40NSwxLjk3LDBsMTIuMjYtMTIuMTdjMCwwLDAsMCwwLjA5LTAuMDlMMTcuOSw1Ni4xOHoiLz4mI3hhOwkJPC9nPiYjeGE7CQk8ZyBpZD0ic2hhcGU0NDM4LTQiIHRyYW5zZm9ybT0idHJhbnNsYXRlKDAsLTEwLjI5MzgpIj4mI3hhOwkJCTx0aXRsZSBpZD0idGl0bGU1ODUxOSI+U2hlZXQuNDQzODwvdGl0bGU+JiN4YTsJCQk8cGF0aCBpZD0icGF0aDU4NTIxIiBpbmtzY2FwZTpjb25uZWN0b3ItY3VydmF0dXJlPSIwIiBzdHlsZT0iZmlsbDojMzk5OUM2OyIgZD0iTTAuNTQsNTYuMThjLTAuNTQtMC41My0wLjQ1LTEuNTIsMC0yLjA2ICAgICBsMi43Ny0yLjc3bDEyLjM1LTEyYzAuNTQtMC41MywxLjM1LTAuNTMsMS45NywwYzAuNTQsMC41NCwwLjcyLDEuNTMsMCwyLjA2TDQuOTIsNTQuMTJjLTAuNTMsMC41NC0wLjUzLDEuNTMsMCwyLjA2TDE3LjksNjkuMzQgICAgIGMwLjU0LDAuNTQsMC41NCwxLjUyLDAsMi4wNmMtMC41MywwLjU0LTEuNTIsMC40NS0xLjk3LDBMMy40LDU5LjQxYzAsMCwwLDAtMC4wOS0wLjA5TDAuNTQsNTYuMTh6Ii8+JiN4YTsJCTwvZz4mI3hhOwkJPGcgaWQ9InNoYXBlNDQzOS02IiB0cmFuc2Zvcm09InRyYW5zbGF0ZSgxNS45MzMpIj4mI3hhOwkJCTx0aXRsZSBpZD0idGl0bGU1ODUyNCI+U2hlZXQuNDQzOTwvdGl0bGU+JiN4YTsJCQk8cGF0aCBpZD0icGF0aDU4NTI2IiBpbmtzY2FwZTpjb25uZWN0b3ItY3VydmF0dXJlPSIwIiBzdHlsZT0iZmlsbDojRkNEMTE2OyIgZD0iTTI2Ljg1LDE5LjEzSDkuNEwwLDQ1LjYybDExLjQ2LDAuMDlMMi41MSw3MS45NCAgICAgbDI0LjctMzVIMTUuMjJMMjYuODUsMTkuMTN6Ii8+JiN4YTsJCTwvZz4mI3hhOwkJPGcgaWQ9InNoYXBlNDQ0MC04IiB0cmFuc2Zvcm09InRyYW5zbGF0ZSgxOC40MzkzKSI+JiN4YTsJCQk8dGl0bGUgaWQ9InRpdGxlNTg1MjkiPlNoZWV0LjQ0NDA8L3RpdGxlPiYjeGE7CQkJPHBhdGggaWQ9InBhdGg1ODUzMSIgaW5rc2NhcGU6Y29ubmVjdG9yLWN1cnZhdHVyZT0iMCIgc3R5bGU9ImZpbGw6I0ZGOEMwMDtmaWxsLW9wYWNpdHk6MC4zOyIgZD0iTTEyLjcxLDM2Ljk0bDExLjY0LTE3LjgxICAgICBoLTkuMTNMNS41NSw0MS4xNGwxMS40NiwwLjA5TDAsNzEuOTRsMjQuNzEtMzVMMTIuNzEsMzYuOTR6Ii8+JiN4YTsJCTwvZz4mI3hhOwk8L2c+JiN4YTs8L2c+JiN4YTs8L3N2Zz4=;" parent="1" vertex="1">
          <mxGeometry x="339.99999999999994" y="260" width="57" height="53" as="geometry" />
        </mxCell>
        <mxCell id="C1Hb5nuXclus8YE3PItr-7" value="BWSG Scraper" style="shape=image;verticalLabelPosition=bottom;labelBackgroundColor=#ffffff;verticalAlign=top;aspect=fixed;imageAspect=0;image=data:image/svg+xml,PHN2ZyB4bWxuczpjYz0iaHR0cDovL2NyZWF0aXZlY29tbW9ucy5vcmcvbnMjIiB4bWxuczpkYz0iaHR0cDovL3B1cmwub3JnL2RjL2VsZW1lbnRzLzEuMS8iIHhtbG5zOmlua3NjYXBlPSJodHRwOi8vd3d3Lmlua3NjYXBlLm9yZy9uYW1lc3BhY2VzL2lua3NjYXBlIiB4bWxuczpyZGY9Imh0dHA6Ly93d3cudzMub3JnLzE5OTkvMDIvMjItcmRmLXN5bnRheC1ucyMiIHhtbG5zOnNvZGlwb2RpPSJodHRwOi8vc29kaXBvZGkuc291cmNlZm9yZ2UubmV0L0RURC9zb2RpcG9kaS0wLmR0ZCIgeG1sbnM6c3ZnPSJodHRwOi8vd3d3LnczLm9yZy8yMDAwL3N2ZyIgeG1sbnM9Imh0dHA6Ly93d3cudzMub3JnLzIwMDAvc3ZnIiB4bWxuczp4bGluaz0iaHR0cDovL3d3dy53My5vcmcvMTk5OS94bGluayIgdmVyc2lvbj0iMS4xIiBpZD0ic3ZnNTg1MzciIGlua3NjYXBlOnZlcnNpb249IjAuOTIuMyAoMjQwNTU0NiwgMjAxOC0wMy0xMSkiIHNvZGlwb2RpOmRvY25hbWU9ImF6dXJlX2Z1bmN0aW9ucy5zdmciIHg9IjBweCIgeT0iMHB4IiB2aWV3Qm94PSIwIDAgNTcuMzEgNTIuODEiIHN0eWxlPSJlbmFibGUtYmFja2dyb3VuZDpuZXcgMCAwIDU3LjMxIDUyLjgxOyIgeG1sOnNwYWNlPSJwcmVzZXJ2ZSI+JiN4YTs8c29kaXBvZGk6bmFtZWR2aWV3IGJvcmRlcmNvbG9yPSIjNjY2NjY2IiBib3JkZXJvcGFjaXR5PSIxIiBmaXQtbWFyZ2luLWJvdHRvbT0iMCIgZml0LW1hcmdpbi1sZWZ0PSIwIiBmaXQtbWFyZ2luLXJpZ2h0PSIwIiBmaXQtbWFyZ2luLXRvcD0iMCIgZ3JpZHRvbGVyYW5jZT0iMTAiIGd1aWRldG9sZXJhbmNlPSIxMCIgaWQ9Im5hbWVkdmlldzU4NTM5IiBpbmtzY2FwZTpjdXJyZW50LWxheWVyPSJzdmc1ODUzNyIgaW5rc2NhcGU6Y3g9IjM5LjQ3MTQ0MiIgaW5rc2NhcGU6Y3k9IjI2LjM0NTIxNyIgaW5rc2NhcGU6cGFnZW9wYWNpdHk9IjAiIGlua3NjYXBlOnBhZ2VzaGFkb3c9IjIiIGlua3NjYXBlOndpbmRvdy1oZWlnaHQ9IjEwMTciIGlua3NjYXBlOndpbmRvdy1tYXhpbWl6ZWQ9IjEiIGlua3NjYXBlOndpbmRvdy13aWR0aD0iMTkyMCIgaW5rc2NhcGU6d2luZG93LXg9Ii04IiBpbmtzY2FwZTp3aW5kb3cteT0iLTgiIGlua3NjYXBlOnpvb209IjYuMzkxNjgyOCIgb2JqZWN0dG9sZXJhbmNlPSIxMCIgcGFnZWNvbG9yPSIjZmZmZmZmIiBzaG93Z3JpZD0iZmFsc2UiPiYjeGE7CTwvc29kaXBvZGk6bmFtZWR2aWV3PiYjeGE7PGcgaWQ9Imc1ODUzNSIgdHJhbnNmb3JtPSJ0cmFuc2xhdGUoLTkuNTYzNDE2MSwtOS41Njc2MDUyKSI+JiN4YTsJPHRpdGxlIGlkPSJ0aXRsZTU4NTEwIj5QYWdlLTE8L3RpdGxlPiYjeGE7CTxnIGlkPSJncm91cDQ0MzYtMSIgdHJhbnNmb3JtPSJ0cmFuc2xhdGUoOS4zOTU0MywtOS41NjI1KSI+JiN4YTsJCTx0aXRsZSBpZD0idGl0bGU1ODUxMiI+QXp1cmUgRnVuY3Rpb25zLjQzNzwvdGl0bGU+JiN4YTsJCTxnIGlkPSJzaGFwZTQ0MzctMiIgdHJhbnNmb3JtPSJ0cmFuc2xhdGUoMzkuMjA1OSwtMTAuMjkzOCkiPiYjeGE7CQkJPHRpdGxlIGlkPSJ0aXRsZTU4NTE0Ij5TaGVldC40NDM3PC90aXRsZT4mI3hhOwkJCTxwYXRoIGlkPSJwYXRoNTg1MTYiIGlua3NjYXBlOmNvbm5lY3Rvci1jdXJ2YXR1cmU9IjAiIHN0eWxlPSJmaWxsOiMzOTk5QzY7IiBkPSJNMTcuOSw1Ni4xOGMwLjU0LTAuNTMsMC40NS0xLjUyLDAtMi4wNiAgICAgbC0yLjc3LTIuNzdsLTEyLjM2LTEyYy0wLjUzLTAuNTMtMS4zNC0wLjUzLTEuOTYsMGMtMC41NCwwLjU0LTAuNzIsMS41MywwLDIuMDZsMTIuOTcsMTIuNzFjMC41NCwwLjU0LDAuNTQsMS41MywwLDIuMDYgICAgIEwwLjU0LDY5LjM0QzAsNjkuODgsMCw3MC44NiwwLjU0LDcxLjRjMC41MywwLjU0LDEuNTIsMC40NSwxLjk3LDBsMTIuMjYtMTIuMTdjMCwwLDAsMCwwLjA5LTAuMDlMMTcuOSw1Ni4xOHoiLz4mI3hhOwkJPC9nPiYjeGE7CQk8ZyBpZD0ic2hhcGU0NDM4LTQiIHRyYW5zZm9ybT0idHJhbnNsYXRlKDAsLTEwLjI5MzgpIj4mI3hhOwkJCTx0aXRsZSBpZD0idGl0bGU1ODUxOSI+U2hlZXQuNDQzODwvdGl0bGU+JiN4YTsJCQk8cGF0aCBpZD0icGF0aDU4NTIxIiBpbmtzY2FwZTpjb25uZWN0b3ItY3VydmF0dXJlPSIwIiBzdHlsZT0iZmlsbDojMzk5OUM2OyIgZD0iTTAuNTQsNTYuMThjLTAuNTQtMC41My0wLjQ1LTEuNTIsMC0yLjA2ICAgICBsMi43Ny0yLjc3bDEyLjM1LTEyYzAuNTQtMC41MywxLjM1LTAuNTMsMS45NywwYzAuNTQsMC41NCwwLjcyLDEuNTMsMCwyLjA2TDQuOTIsNTQuMTJjLTAuNTMsMC41NC0wLjUzLDEuNTMsMCwyLjA2TDE3LjksNjkuMzQgICAgIGMwLjU0LDAuNTQsMC41NCwxLjUyLDAsMi4wNmMtMC41MywwLjU0LTEuNTIsMC40NS0xLjk3LDBMMy40LDU5LjQxYzAsMCwwLDAtMC4wOS0wLjA5TDAuNTQsNTYuMTh6Ii8+JiN4YTsJCTwvZz4mI3hhOwkJPGcgaWQ9InNoYXBlNDQzOS02IiB0cmFuc2Zvcm09InRyYW5zbGF0ZSgxNS45MzMpIj4mI3hhOwkJCTx0aXRsZSBpZD0idGl0bGU1ODUyNCI+U2hlZXQuNDQzOTwvdGl0bGU+JiN4YTsJCQk8cGF0aCBpZD0icGF0aDU4NTI2IiBpbmtzY2FwZTpjb25uZWN0b3ItY3VydmF0dXJlPSIwIiBzdHlsZT0iZmlsbDojRkNEMTE2OyIgZD0iTTI2Ljg1LDE5LjEzSDkuNEwwLDQ1LjYybDExLjQ2LDAuMDlMMi41MSw3MS45NCAgICAgbDI0LjctMzVIMTUuMjJMMjYuODUsMTkuMTN6Ii8+JiN4YTsJCTwvZz4mI3hhOwkJPGcgaWQ9InNoYXBlNDQ0MC04IiB0cmFuc2Zvcm09InRyYW5zbGF0ZSgxOC40MzkzKSI+JiN4YTsJCQk8dGl0bGUgaWQ9InRpdGxlNTg1MjkiPlNoZWV0LjQ0NDA8L3RpdGxlPiYjeGE7CQkJPHBhdGggaWQ9InBhdGg1ODUzMSIgaW5rc2NhcGU6Y29ubmVjdG9yLWN1cnZhdHVyZT0iMCIgc3R5bGU9ImZpbGw6I0ZGOEMwMDtmaWxsLW9wYWNpdHk6MC4zOyIgZD0iTTEyLjcxLDM2Ljk0bDExLjY0LTE3LjgxICAgICBoLTkuMTNMNS41NSw0MS4xNGwxMS40NiwwLjA5TDAsNzEuOTRsMjQuNzEtMzVMMTIuNzEsMzYuOTR6Ii8+JiN4YTsJCTwvZz4mI3hhOwk8L2c+JiN4YTs8L2c+JiN4YTs8L3N2Zz4=;" parent="1" vertex="1">
          <mxGeometry x="339.99999999999994" y="338.5" width="57" height="53" as="geometry" />
        </mxCell>
        <mxCell id="C1Hb5nuXclus8YE3PItr-8" value="Ã–VW Scraper" style="shape=image;verticalLabelPosition=bottom;labelBackgroundColor=#ffffff;verticalAlign=top;aspect=fixed;imageAspect=0;image=data:image/svg+xml,PHN2ZyB4bWxuczpjYz0iaHR0cDovL2NyZWF0aXZlY29tbW9ucy5vcmcvbnMjIiB4bWxuczpkYz0iaHR0cDovL3B1cmwub3JnL2RjL2VsZW1lbnRzLzEuMS8iIHhtbG5zOmlua3NjYXBlPSJodHRwOi8vd3d3Lmlua3NjYXBlLm9yZy9uYW1lc3BhY2VzL2lua3NjYXBlIiB4bWxuczpyZGY9Imh0dHA6Ly93d3cudzMub3JnLzE5OTkvMDIvMjItcmRmLXN5bnRheC1ucyMiIHhtbG5zOnNvZGlwb2RpPSJodHRwOi8vc29kaXBvZGkuc291cmNlZm9yZ2UubmV0L0RURC9zb2RpcG9kaS0wLmR0ZCIgeG1sbnM6c3ZnPSJodHRwOi8vd3d3LnczLm9yZy8yMDAwL3N2ZyIgeG1sbnM9Imh0dHA6Ly93d3cudzMub3JnLzIwMDAvc3ZnIiB4bWxuczp4bGluaz0iaHR0cDovL3d3dy53My5vcmcvMTk5OS94bGluayIgdmVyc2lvbj0iMS4xIiBpZD0ic3ZnNTg1MzciIGlua3NjYXBlOnZlcnNpb249IjAuOTIuMyAoMjQwNTU0NiwgMjAxOC0wMy0xMSkiIHNvZGlwb2RpOmRvY25hbWU9ImF6dXJlX2Z1bmN0aW9ucy5zdmciIHg9IjBweCIgeT0iMHB4IiB2aWV3Qm94PSIwIDAgNTcuMzEgNTIuODEiIHN0eWxlPSJlbmFibGUtYmFja2dyb3VuZDpuZXcgMCAwIDU3LjMxIDUyLjgxOyIgeG1sOnNwYWNlPSJwcmVzZXJ2ZSI+JiN4YTs8c29kaXBvZGk6bmFtZWR2aWV3IGJvcmRlcmNvbG9yPSIjNjY2NjY2IiBib3JkZXJvcGFjaXR5PSIxIiBmaXQtbWFyZ2luLWJvdHRvbT0iMCIgZml0LW1hcmdpbi1sZWZ0PSIwIiBmaXQtbWFyZ2luLXJpZ2h0PSIwIiBmaXQtbWFyZ2luLXRvcD0iMCIgZ3JpZHRvbGVyYW5jZT0iMTAiIGd1aWRldG9sZXJhbmNlPSIxMCIgaWQ9Im5hbWVkdmlldzU4NTM5IiBpbmtzY2FwZTpjdXJyZW50LWxheWVyPSJzdmc1ODUzNyIgaW5rc2NhcGU6Y3g9IjM5LjQ3MTQ0MiIgaW5rc2NhcGU6Y3k9IjI2LjM0NTIxNyIgaW5rc2NhcGU6cGFnZW9wYWNpdHk9IjAiIGlua3NjYXBlOnBhZ2VzaGFkb3c9IjIiIGlua3NjYXBlOndpbmRvdy1oZWlnaHQ9IjEwMTciIGlua3NjYXBlOndpbmRvdy1tYXhpbWl6ZWQ9IjEiIGlua3NjYXBlOndpbmRvdy13aWR0aD0iMTkyMCIgaW5rc2NhcGU6d2luZG93LXg9Ii04IiBpbmtzY2FwZTp3aW5kb3cteT0iLTgiIGlua3NjYXBlOnpvb209IjYuMzkxNjgyOCIgb2JqZWN0dG9sZXJhbmNlPSIxMCIgcGFnZWNvbG9yPSIjZmZmZmZmIiBzaG93Z3JpZD0iZmFsc2UiPiYjeGE7CTwvc29kaXBvZGk6bmFtZWR2aWV3PiYjeGE7PGcgaWQ9Imc1ODUzNSIgdHJhbnNmb3JtPSJ0cmFuc2xhdGUoLTkuNTYzNDE2MSwtOS41Njc2MDUyKSI+JiN4YTsJPHRpdGxlIGlkPSJ0aXRsZTU4NTEwIj5QYWdlLTE8L3RpdGxlPiYjeGE7CTxnIGlkPSJncm91cDQ0MzYtMSIgdHJhbnNmb3JtPSJ0cmFuc2xhdGUoOS4zOTU0MywtOS41NjI1KSI+JiN4YTsJCTx0aXRsZSBpZD0idGl0bGU1ODUxMiI+QXp1cmUgRnVuY3Rpb25zLjQzNzwvdGl0bGU+JiN4YTsJCTxnIGlkPSJzaGFwZTQ0MzctMiIgdHJhbnNmb3JtPSJ0cmFuc2xhdGUoMzkuMjA1OSwtMTAuMjkzOCkiPiYjeGE7CQkJPHRpdGxlIGlkPSJ0aXRsZTU4NTE0Ij5TaGVldC40NDM3PC90aXRsZT4mI3hhOwkJCTxwYXRoIGlkPSJwYXRoNTg1MTYiIGlua3NjYXBlOmNvbm5lY3Rvci1jdXJ2YXR1cmU9IjAiIHN0eWxlPSJmaWxsOiMzOTk5QzY7IiBkPSJNMTcuOSw1Ni4xOGMwLjU0LTAuNTMsMC40NS0xLjUyLDAtMi4wNiAgICAgbC0yLjc3LTIuNzdsLTEyLjM2LTEyYy0wLjUzLTAuNTMtMS4zNC0wLjUzLTEuOTYsMGMtMC41NCwwLjU0LTAuNzIsMS41MywwLDIuMDZsMTIuOTcsMTIuNzFjMC41NCwwLjU0LDAuNTQsMS41MywwLDIuMDYgICAgIEwwLjU0LDY5LjM0QzAsNjkuODgsMCw3MC44NiwwLjU0LDcxLjRjMC41MywwLjU0LDEuNTIsMC40NSwxLjk3LDBsMTIuMjYtMTIuMTdjMCwwLDAsMCwwLjA5LTAuMDlMMTcuOSw1Ni4xOHoiLz4mI3hhOwkJPC9nPiYjeGE7CQk8ZyBpZD0ic2hhcGU0NDM4LTQiIHRyYW5zZm9ybT0idHJhbnNsYXRlKDAsLTEwLjI5MzgpIj4mI3hhOwkJCTx0aXRsZSBpZD0idGl0bGU1ODUxOSI+U2hlZXQuNDQzODwvdGl0bGU+JiN4YTsJCQk8cGF0aCBpZD0icGF0aDU4NTIxIiBpbmtzY2FwZTpjb25uZWN0b3ItY3VydmF0dXJlPSIwIiBzdHlsZT0iZmlsbDojMzk5OUM2OyIgZD0iTTAuNTQsNTYuMThjLTAuNTQtMC41My0wLjQ1LTEuNTIsMC0yLjA2ICAgICBsMi43Ny0yLjc3bDEyLjM1LTEyYzAuNTQtMC41MywxLjM1LTAuNTMsMS45NywwYzAuNTQsMC41NCwwLjcyLDEuNTMsMCwyLjA2TDQuOTIsNTQuMTJjLTAuNTMsMC41NC0wLjUzLDEuNTMsMCwyLjA2TDE3LjksNjkuMzQgICAgIGMwLjU0LDAuNTQsMC41NCwxLjUyLDAsMi4wNmMtMC41MywwLjU0LTEuNTIsMC40NS0xLjk3LDBMMy40LDU5LjQxYzAsMCwwLDAtMC4wOS0wLjA5TDAuNTQsNTYuMTh6Ii8+JiN4YTsJCTwvZz4mI3hhOwkJPGcgaWQ9InNoYXBlNDQzOS02IiB0cmFuc2Zvcm09InRyYW5zbGF0ZSgxNS45MzMpIj4mI3hhOwkJCTx0aXRsZSBpZD0idGl0bGU1ODUyNCI+U2hlZXQuNDQzOTwvdGl0bGU+JiN4YTsJCQk8cGF0aCBpZD0icGF0aDU4NTI2IiBpbmtzY2FwZTpjb25uZWN0b3ItY3VydmF0dXJlPSIwIiBzdHlsZT0iZmlsbDojRkNEMTE2OyIgZD0iTTI2Ljg1LDE5LjEzSDkuNEwwLDQ1LjYybDExLjQ2LDAuMDlMMi41MSw3MS45NCAgICAgbDI0LjctMzVIMTUuMjJMMjYuODUsMTkuMTN6Ii8+JiN4YTsJCTwvZz4mI3hhOwkJPGcgaWQ9InNoYXBlNDQ0MC04IiB0cmFuc2Zvcm09InRyYW5zbGF0ZSgxOC40MzkzKSI+JiN4YTsJCQk8dGl0bGUgaWQ9InRpdGxlNTg1MjkiPlNoZWV0LjQ0NDA8L3RpdGxlPiYjeGE7CQkJPHBhdGggaWQ9InBhdGg1ODUzMSIgaW5rc2NhcGU6Y29ubmVjdG9yLWN1cnZhdHVyZT0iMCIgc3R5bGU9ImZpbGw6I0ZGOEMwMDtmaWxsLW9wYWNpdHk6MC4zOyIgZD0iTTEyLjcxLDM2Ljk0bDExLjY0LTE3LjgxICAgICBoLTkuMTNMNS41NSw0MS4xNGwxMS40NiwwLjA5TDAsNzEuOTRsMjQuNzEtMzVMMTIuNzEsMzYuOTR6Ii8+JiN4YTsJCTwvZz4mI3hhOwk8L2c+JiN4YTs8L2c+JiN4YTs8L3N2Zz4=;" parent="1" vertex="1">
          <mxGeometry x="339.99999999999994" y="430" width="57" height="53" as="geometry" />
        </mxCell>
        <mxCell id="ejgO_KiSoNN0elxwD4rP-6" style="edgeStyle=orthogonalEdgeStyle;rounded=0;orthogonalLoop=1;jettySize=auto;html=1;entryX=0;entryY=0.5;entryDx=0;entryDy=0;" parent="1" source="ejgO_KiSoNN0elxwD4rP-5" target="C1Hb5nuXclus8YE3PItr-5" edge="1">
          <mxGeometry relative="1" as="geometry">
            <Array as="points">
              <mxPoint x="280" y="365" />
              <mxPoint x="280" y="287" />
            </Array>
          </mxGeometry>
        </mxCell>
        <mxCell id="ejgO_KiSoNN0elxwD4rP-7" style="edgeStyle=orthogonalEdgeStyle;rounded=0;orthogonalLoop=1;jettySize=auto;html=1;entryX=0;entryY=0.5;entryDx=0;entryDy=0;" parent="1" source="ejgO_KiSoNN0elxwD4rP-5" target="C1Hb5nuXclus8YE3PItr-7" edge="1">
          <mxGeometry relative="1" as="geometry" />
        </mxCell>
        <mxCell id="ejgO_KiSoNN0elxwD4rP-8" style="edgeStyle=orthogonalEdgeStyle;rounded=0;orthogonalLoop=1;jettySize=auto;html=1;entryX=0;entryY=0.5;entryDx=0;entryDy=0;" parent="1" source="ejgO_KiSoNN0elxwD4rP-5" target="C1Hb5nuXclus8YE3PItr-8" edge="1">
          <mxGeometry relative="1" as="geometry">
            <Array as="points">
              <mxPoint x="280" y="365" />
              <mxPoint x="280" y="457" />
            </Array>
          </mxGeometry>
        </mxCell>
        <mxCell id="ejgO_KiSoNN0elxwD4rP-5" value="Azure Timer&amp;nbsp;&lt;div&gt;Trigger&lt;/div&gt;" style="text;html=1;align=center;verticalAlign=middle;resizable=0;points=[];autosize=1;strokeColor=none;fillColor=none;" parent="1" vertex="1">
          <mxGeometry x="180" y="345" width="90" height="40" as="geometry" />
        </mxCell>
        <mxCell id="foKkk4biJ4Mzu0r1IqwP-3" value="" style="edgeStyle=orthogonalEdgeStyle;rounded=0;orthogonalLoop=1;jettySize=auto;html=1;" parent="1" source="foKkk4biJ4Mzu0r1IqwP-1" target="C1Hb5nuXclus8YE3PItr-12" edge="1">
          <mxGeometry relative="1" as="geometry" />
        </mxCell>
        <mxCell id="foKkk4biJ4Mzu0r1IqwP-4" value="" style="edgeStyle=orthogonalEdgeStyle;rounded=0;orthogonalLoop=1;jettySize=auto;html=1;" parent="1" source="foKkk4biJ4Mzu0r1IqwP-1" target="C1Hb5nuXclus8YE3PItr-12" edge="1">
          <mxGeometry relative="1" as="geometry" />
        </mxCell>
        <mxCell id="foKkk4biJ4Mzu0r1IqwP-1" value="Cleanup Job&#xa;(Remove unavailable listings)&#xa;" style="shape=image;verticalLabelPosition=bottom;labelBackgroundColor=#ffffff;verticalAlign=top;aspect=fixed;imageAspect=0;image=data:image/svg+xml,PHN2ZyB4bWxuczpjYz0iaHR0cDovL2NyZWF0aXZlY29tbW9ucy5vcmcvbnMjIiB4bWxuczpkYz0iaHR0cDovL3B1cmwub3JnL2RjL2VsZW1lbnRzLzEuMS8iIHhtbG5zOmlua3NjYXBlPSJodHRwOi8vd3d3Lmlua3NjYXBlLm9yZy9uYW1lc3BhY2VzL2lua3NjYXBlIiB4bWxuczpyZGY9Imh0dHA6Ly93d3cudzMub3JnLzE5OTkvMDIvMjItcmRmLXN5bnRheC1ucyMiIHhtbG5zOnNvZGlwb2RpPSJodHRwOi8vc29kaXBvZGkuc291cmNlZm9yZ2UubmV0L0RURC9zb2RpcG9kaS0wLmR0ZCIgeG1sbnM6c3ZnPSJodHRwOi8vd3d3LnczLm9yZy8yMDAwL3N2ZyIgeG1sbnM9Imh0dHA6Ly93d3cudzMub3JnLzIwMDAvc3ZnIiB4bWxuczp4bGluaz0iaHR0cDovL3d3dy53My5vcmcvMTk5OS94bGluayIgdmVyc2lvbj0iMS4xIiBpZD0ic3ZnNTg1MzciIGlua3NjYXBlOnZlcnNpb249IjAuOTIuMyAoMjQwNTU0NiwgMjAxOC0wMy0xMSkiIHNvZGlwb2RpOmRvY25hbWU9ImF6dXJlX2Z1bmN0aW9ucy5zdmciIHg9IjBweCIgeT0iMHB4IiB2aWV3Qm94PSIwIDAgNTcuMzEgNTIuODEiIHN0eWxlPSJlbmFibGUtYmFja2dyb3VuZDpuZXcgMCAwIDU3LjMxIDUyLjgxOyIgeG1sOnNwYWNlPSJwcmVzZXJ2ZSI+JiN4YTs8c29kaXBvZGk6bmFtZWR2aWV3IGJvcmRlcmNvbG9yPSIjNjY2NjY2IiBib3JkZXJvcGFjaXR5PSIxIiBmaXQtbWFyZ2luLWJvdHRvbT0iMCIgZml0LW1hcmdpbi1sZWZ0PSIwIiBmaXQtbWFyZ2luLXJpZ2h0PSIwIiBmaXQtbWFyZ2luLXRvcD0iMCIgZ3JpZHRvbGVyYW5jZT0iMTAiIGd1aWRldG9sZXJhbmNlPSIxMCIgaWQ9Im5hbWVkdmlldzU4NTM5IiBpbmtzY2FwZTpjdXJyZW50LWxheWVyPSJzdmc1ODUzNyIgaW5rc2NhcGU6Y3g9IjM5LjQ3MTQ0MiIgaW5rc2NhcGU6Y3k9IjI2LjM0NTIxNyIgaW5rc2NhcGU6cGFnZW9wYWNpdHk9IjAiIGlua3NjYXBlOnBhZ2VzaGFkb3c9IjIiIGlua3NjYXBlOndpbmRvdy1oZWlnaHQ9IjEwMTciIGlua3NjYXBlOndpbmRvdy1tYXhpbWl6ZWQ9IjEiIGlua3NjYXBlOndpbmRvdy13aWR0aD0iMTkyMCIgaW5rc2NhcGU6d2luZG93LXg9Ii04IiBpbmtzY2FwZTp3aW5kb3cteT0iLTgiIGlua3NjYXBlOnpvb209IjYuMzkxNjgyOCIgb2JqZWN0dG9sZXJhbmNlPSIxMCIgcGFnZWNvbG9yPSIjZmZmZmZmIiBzaG93Z3JpZD0iZmFsc2UiPiYjeGE7CTwvc29kaXBvZGk6bmFtZWR2aWV3PiYjeGE7PGcgaWQ9Imc1ODUzNSIgdHJhbnNmb3JtPSJ0cmFuc2xhdGUoLTkuNTYzNDE2MSwtOS41Njc2MDUyKSI+JiN4YTsJPHRpdGxlIGlkPSJ0aXRsZTU4NTEwIj5QYWdlLTE8L3RpdGxlPiYjeGE7CTxnIGlkPSJncm91cDQ0MzYtMSIgdHJhbnNmb3JtPSJ0cmFuc2xhdGUoOS4zOTU0MywtOS41NjI1KSI+JiN4YTsJCTx0aXRsZSBpZD0idGl0bGU1ODUxMiI+QXp1cmUgRnVuY3Rpb25zLjQzNzwvdGl0bGU+JiN4YTsJCTxnIGlkPSJzaGFwZTQ0MzctMiIgdHJhbnNmb3JtPSJ0cmFuc2xhdGUoMzkuMjA1OSwtMTAuMjkzOCkiPiYjeGE7CQkJPHRpdGxlIGlkPSJ0aXRsZTU4NTE0Ij5TaGVldC40NDM3PC90aXRsZT4mI3hhOwkJCTxwYXRoIGlkPSJwYXRoNTg1MTYiIGlua3NjYXBlOmNvbm5lY3Rvci1jdXJ2YXR1cmU9IjAiIHN0eWxlPSJmaWxsOiMzOTk5QzY7IiBkPSJNMTcuOSw1Ni4xOGMwLjU0LTAuNTMsMC40NS0xLjUyLDAtMi4wNiAgICAgbC0yLjc3LTIuNzdsLTEyLjM2LTEyYy0wLjUzLTAuNTMtMS4zNC0wLjUzLTEuOTYsMGMtMC41NCwwLjU0LTAuNzIsMS41MywwLDIuMDZsMTIuOTcsMTIuNzFjMC41NCwwLjU0LDAuNTQsMS41MywwLDIuMDYgICAgIEwwLjU0LDY5LjM0QzAsNjkuODgsMCw3MC44NiwwLjU0LDcxLjRjMC41MywwLjU0LDEuNTIsMC40NSwxLjk3LDBsMTIuMjYtMTIuMTdjMCwwLDAsMCwwLjA5LTAuMDlMMTcuOSw1Ni4xOHoiLz4mI3hhOwkJPC9nPiYjeGE7CQk8ZyBpZD0ic2hhcGU0NDM4LTQiIHRyYW5zZm9ybT0idHJhbnNsYXRlKDAsLTEwLjI5MzgpIj4mI3hhOwkJCTx0aXRsZSBpZD0idGl0bGU1ODUxOSI+U2hlZXQuNDQzODwvdGl0bGU+JiN4YTsJCQk8cGF0aCBpZD0icGF0aDU4NTIxIiBpbmtzY2FwZTpjb25uZWN0b3ItY3VydmF0dXJlPSIwIiBzdHlsZT0iZmlsbDojMzk5OUM2OyIgZD0iTTAuNTQsNTYuMThjLTAuNTQtMC41My0wLjQ1LTEuNTIsMC0yLjA2ICAgICBsMi43Ny0yLjc3bDEyLjM1LTEyYzAuNTQtMC41MywxLjM1LTAuNTMsMS45NywwYzAuNTQsMC41NCwwLjcyLDEuNTMsMCwyLjA2TDQuOTIsNTQuMTJjLTAuNTMsMC41NC0wLjUzLDEuNTMsMCwyLjA2TDE3LjksNjkuMzQgICAgIGMwLjU0LDAuNTQsMC41NCwxLjUyLDAsMi4wNmMtMC41MywwLjU0LTEuNTIsMC40NS0xLjk3LDBMMy40LDU5LjQxYzAsMCwwLDAtMC4wOS0wLjA5TDAuNTQsNTYuMTh6Ii8+JiN4YTsJCTwvZz4mI3hhOwkJPGcgaWQ9InNoYXBlNDQzOS02IiB0cmFuc2Zvcm09InRyYW5zbGF0ZSgxNS45MzMpIj4mI3hhOwkJCTx0aXRsZSBpZD0idGl0bGU1ODUyNCI+U2hlZXQuNDQzOTwvdGl0bGU+JiN4YTsJCQk8cGF0aCBpZD0icGF0aDU4NTI2IiBpbmtzY2FwZTpjb25uZWN0b3ItY3VydmF0dXJlPSIwIiBzdHlsZT0iZmlsbDojRkNEMTE2OyIgZD0iTTI2Ljg1LDE5LjEzSDkuNEwwLDQ1LjYybDExLjQ2LDAuMDlMMi41MSw3MS45NCAgICAgbDI0LjctMzVIMTUuMjJMMjYuODUsMTkuMTN6Ii8+JiN4YTsJCTwvZz4mI3hhOwkJPGcgaWQ9InNoYXBlNDQ0MC04IiB0cmFuc2Zvcm09InRyYW5zbGF0ZSgxOC40MzkzKSI+JiN4YTsJCQk8dGl0bGUgaWQ9InRpdGxlNTg1MjkiPlNoZWV0LjQ0NDA8L3RpdGxlPiYjeGE7CQkJPHBhdGggaWQ9InBhdGg1ODUzMSIgaW5rc2NhcGU6Y29ubmVjdG9yLWN1cnZhdHVyZT0iMCIgc3R5bGU9ImZpbGw6I0ZGOEMwMDtmaWxsLW9wYWNpdHk6MC4zOyIgZD0iTTEyLjcxLDM2Ljk0bDExLjY0LTE3LjgxICAgICBoLTkuMTNMNS41NSw0MS4xNGwxMS40NiwwLjA5TDAsNzEuOTRsMjQuNzEtMzVMMTIuNzEsMzYuOTR6Ii8+JiN4YTsJCTwvZz4mI3hhOwk8L2c+JiN4YTs8L2c+JiN4YTs8L3N2Zz4=;" parent="1" vertex="1">
          <mxGeometry x="531.5" y="207" width="57" height="53" as="geometry" />
        </mxCell>
      </root>
    </mxGraphModel>
  </diagram>
  <diagram id="-JZpfQyxo45eXCk6FIKD" name="terraform-pipeline">
    <mxGraphModel dx="1434" dy="866" grid="1" gridSize="10" guides="1" tooltips="1" connect="1" arrows="1" fold="1" page="1" pageScale="1" pageWidth="827" pageHeight="1169" math="0" shadow="0">
      <root>
        <mxCell id="0" />
        <mxCell id="1" parent="0" />
        <mxCell id="9VRhQlJgTcOn4RRWcXaj-1" value="" style="rounded=0;whiteSpace=wrap;html=1;" vertex="1" parent="1">
          <mxGeometry x="535" y="264" width="545" height="186" as="geometry" />
        </mxCell>
        <mxCell id="9VRhQlJgTcOn4RRWcXaj-2" value="" style="aspect=fixed;sketch=0;html=1;dashed=0;whitespace=wrap;fillColor=#2875E2;strokeColor=#ffffff;points=[[0.005,0.63,0],[0.1,0.2,0],[0.9,0.2,0],[0.5,0,0],[0.995,0.63,0],[0.72,0.99,0],[0.5,1,0],[0.28,0.99,0]];shape=mxgraph.kubernetes.icon2;prIcon=secret" vertex="1" parent="1">
          <mxGeometry x="480" y="30" width="50" height="48" as="geometry" />
        </mxCell>
        <mxCell id="9VRhQlJgTcOn4RRWcXaj-3" value="" style="dashed=0;outlineConnect=0;html=1;align=center;labelPosition=center;verticalLabelPosition=bottom;verticalAlign=top;shape=mxgraph.weblogos.github" vertex="1" parent="1">
          <mxGeometry x="130" y="414" width="50" height="50" as="geometry" />
        </mxCell>
        <mxCell id="9VRhQlJgTcOn4RRWcXaj-4" style="edgeStyle=orthogonalEdgeStyle;rounded=0;orthogonalLoop=1;jettySize=auto;html=1;entryX=0.5;entryY=0;entryDx=0;entryDy=0;" edge="1" parent="1" source="9VRhQlJgTcOn4RRWcXaj-5" target="9VRhQlJgTcOn4RRWcXaj-6">
          <mxGeometry relative="1" as="geometry" />
        </mxCell>
        <mxCell id="9VRhQlJgTcOn4RRWcXaj-5" value="github variables" style="text;html=1;align=center;verticalAlign=middle;whiteSpace=wrap;rounded=0;" vertex="1" parent="1">
          <mxGeometry x="60" y="39" width="60" height="30" as="geometry" />
        </mxCell>
        <mxCell id="9VRhQlJgTcOn4RRWcXaj-6" value="github actions" style="text;html=1;align=center;verticalAlign=middle;whiteSpace=wrap;rounded=0;" vertex="1" parent="1">
          <mxGeometry x="60" y="424" width="60" height="30" as="geometry" />
        </mxCell>
        <mxCell id="9VRhQlJgTcOn4RRWcXaj-7" value="ARM_CLIENT_ID_&amp;lt;STAGE&amp;gt;&lt;div&gt;ARM_CLIENT_SECRET_&amp;lt;STAGE&amp;gt;&lt;/div&gt;" style="text;html=1;align=left;verticalAlign=top;whiteSpace=wrap;rounded=0;horizontal=1;" vertex="1" parent="1">
          <mxGeometry x="449.61" y="90" width="320" height="40" as="geometry" />
        </mxCell>
        <mxCell id="9VRhQlJgTcOn4RRWcXaj-8" value="" style="shape=image;html=1;verticalLabelPosition=bottom;verticalAlign=top;imageAspect=0;image=img/clipart/Gear_128x128.png" vertex="1" parent="1">
          <mxGeometry x="130" y="24" width="50" height="60" as="geometry" />
        </mxCell>
        <mxCell id="9VRhQlJgTcOn4RRWcXaj-9" style="edgeStyle=orthogonalEdgeStyle;rounded=0;orthogonalLoop=1;jettySize=auto;html=1;" edge="1" parent="1" source="9VRhQlJgTcOn4RRWcXaj-10">
          <mxGeometry relative="1" as="geometry">
            <mxPoint x="90" y="320" as="targetPoint" />
            <Array as="points">
              <mxPoint x="440" y="310" />
              <mxPoint x="91" y="310" />
            </Array>
          </mxGeometry>
        </mxCell>
        <mxCell id="9VRhQlJgTcOn4RRWcXaj-10" value="github secrets" style="text;html=1;align=center;verticalAlign=middle;whiteSpace=wrap;rounded=0;" vertex="1" parent="1">
          <mxGeometry x="410" y="39" width="60" height="30" as="geometry" />
        </mxCell>
        <mxCell id="9VRhQlJgTcOn4RRWcXaj-11" value="INFRA_RESOURCE_GROUP_NAME_&amp;lt;STAGE&amp;gt;&lt;div&gt;INFRA_SUBSCRIPTION_ID_&amp;lt;STAGE&amp;gt;&lt;/div&gt;&lt;div&gt;INFRA_TENANT_ID_&amp;lt;STAGE&amp;gt;&lt;/div&gt;&lt;div&gt;STATE_RESOURCE_GROUP_NAME_&amp;lt;STAGE&amp;gt;&lt;/div&gt;&lt;div&gt;STATE_STORAGE_ACCOUNT_NAME_&amp;lt;STAGE&amp;gt;&lt;/div&gt;&lt;div&gt;DEVELOPMENT_BRANCH&lt;/div&gt;&lt;div&gt;PRODUCTION_BRANCH_PREFIX&lt;/div&gt;&lt;div&gt;&lt;br&gt;&lt;/div&gt;&lt;div&gt;&amp;lt;STAGE&amp;gt; - PROD - release branches / DEV - main&lt;/div&gt;&lt;div&gt;INFRA - variables regarding our infrastructure&lt;/div&gt;&lt;div&gt;STATE - variables regarding the location of the terraform backend state file&lt;/div&gt;" style="text;html=1;align=left;verticalAlign=top;whiteSpace=wrap;rounded=0;" vertex="1" parent="1">
          <mxGeometry x="110" y="100" width="290" height="160" as="geometry" />
        </mxCell>
        <mxCell id="9VRhQlJgTcOn4RRWcXaj-12" style="edgeStyle=orthogonalEdgeStyle;rounded=0;orthogonalLoop=1;jettySize=auto;html=1;entryX=-0.052;entryY=0.525;entryDx=0;entryDy=0;entryPerimeter=0;" edge="1" parent="1" source="9VRhQlJgTcOn4RRWcXaj-16" target="9VRhQlJgTcOn4RRWcXaj-20">
          <mxGeometry relative="1" as="geometry">
            <Array as="points">
              <mxPoint x="365" y="340" />
              <mxPoint x="582" y="340" />
            </Array>
          </mxGeometry>
        </mxCell>
        <mxCell id="9VRhQlJgTcOn4RRWcXaj-13" value="store state lock" style="edgeLabel;html=1;align=center;verticalAlign=middle;resizable=0;points=[];" vertex="1" connectable="0" parent="9VRhQlJgTcOn4RRWcXaj-12">
          <mxGeometry x="0.2344" y="-4" relative="1" as="geometry">
            <mxPoint as="offset" />
          </mxGeometry>
        </mxCell>
        <mxCell id="9VRhQlJgTcOn4RRWcXaj-14" style="edgeStyle=orthogonalEdgeStyle;rounded=0;orthogonalLoop=1;jettySize=auto;html=1;entryX=0;entryY=0.5;entryDx=0;entryDy=0;" edge="1" parent="1" source="9VRhQlJgTcOn4RRWcXaj-16" target="9VRhQlJgTcOn4RRWcXaj-28">
          <mxGeometry relative="1" as="geometry" />
        </mxCell>
        <mxCell id="9VRhQlJgTcOn4RRWcXaj-15" value="deploy infrastructure" style="edgeLabel;html=1;align=center;verticalAlign=middle;resizable=0;points=[];" vertex="1" connectable="0" parent="9VRhQlJgTcOn4RRWcXaj-14">
          <mxGeometry x="-0.7937" y="-5" relative="1" as="geometry">
            <mxPoint x="22" as="offset" />
          </mxGeometry>
        </mxCell>
        <mxCell id="9VRhQlJgTcOn4RRWcXaj-16" value="" style="image;aspect=fixed;html=1;points=[];align=center;fontSize=12;image=img/lib/azure2/identity/App_Registrations.svg;" vertex="1" parent="1">
          <mxGeometry x="340" y="414" width="49.22" height="50" as="geometry" />
        </mxCell>
        <mxCell id="9VRhQlJgTcOn4RRWcXaj-17" value="&lt;div&gt;ghgewoscout&lt;br&gt;&lt;/div&gt;Azure App Registration&lt;div&gt;(Azure Service Principal)&lt;/div&gt;" style="text;html=1;align=center;verticalAlign=middle;whiteSpace=wrap;rounded=0;" vertex="1" parent="1">
          <mxGeometry x="279.61" y="464" width="170" height="66" as="geometry" />
        </mxCell>
        <mxCell id="9VRhQlJgTcOn4RRWcXaj-18" style="edgeStyle=orthogonalEdgeStyle;rounded=0;orthogonalLoop=1;jettySize=auto;html=1;entryX=-0.041;entryY=0.5;entryDx=0;entryDy=0;entryPerimeter=0;" edge="1" parent="1" source="9VRhQlJgTcOn4RRWcXaj-3" target="9VRhQlJgTcOn4RRWcXaj-16">
          <mxGeometry relative="1" as="geometry" />
        </mxCell>
        <mxCell id="9VRhQlJgTcOn4RRWcXaj-19" value="terraform apply" style="text;html=1;align=center;verticalAlign=middle;whiteSpace=wrap;rounded=0;" vertex="1" parent="1">
          <mxGeometry x="190" y="414" width="130" height="30" as="geometry" />
        </mxCell>
        <mxCell id="9VRhQlJgTcOn4RRWcXaj-20" value="" style="image;aspect=fixed;html=1;points=[];align=center;fontSize=12;image=img/lib/azure2/storage/Storage_Accounts.svg;" vertex="1" parent="1">
          <mxGeometry x="584.61" y="310" width="50" height="40" as="geometry" />
        </mxCell>
        <mxCell id="9VRhQlJgTcOn4RRWcXaj-21" value="Storage Account&lt;div&gt;sagewoscout&lt;/div&gt;" style="text;html=1;align=center;verticalAlign=middle;whiteSpace=wrap;rounded=0;" vertex="1" parent="1">
          <mxGeometry x="560" y="350" width="100" height="30" as="geometry" />
        </mxCell>
        <mxCell id="9VRhQlJgTcOn4RRWcXaj-22" value="" style="rounded=0;whiteSpace=wrap;html=1;" vertex="1" parent="1">
          <mxGeometry x="590" y="234" width="180" height="60" as="geometry" />
        </mxCell>
        <mxCell id="9VRhQlJgTcOn4RRWcXaj-23" value="" style="image;sketch=0;aspect=fixed;html=1;points=[];align=center;fontSize=12;image=img/lib/mscae/ResourceGroup.svg;" vertex="1" parent="1">
          <mxGeometry x="600" y="244" width="50" height="40" as="geometry" />
        </mxCell>
        <mxCell id="9VRhQlJgTcOn4RRWcXaj-24" value="rg-gewoscout-dev" style="text;html=1;align=center;verticalAlign=middle;whiteSpace=wrap;rounded=0;" vertex="1" parent="1">
          <mxGeometry x="660" y="248" width="100" height="30" as="geometry" />
        </mxCell>
        <mxCell id="9VRhQlJgTcOn4RRWcXaj-25" value="" style="image;aspect=fixed;html=1;points=[];align=center;fontSize=12;image=img/lib/azure2/storage/Storage_Accounts.svg;" vertex="1" parent="1">
          <mxGeometry x="704.61" y="310" width="50" height="40" as="geometry" />
        </mxCell>
        <mxCell id="9VRhQlJgTcOn4RRWcXaj-26" value="&lt;div&gt;container&lt;/div&gt;&lt;div&gt;tfgewoscout&lt;/div&gt;" style="text;html=1;align=center;verticalAlign=middle;whiteSpace=wrap;rounded=0;" vertex="1" parent="1">
          <mxGeometry x="680" y="350" width="100" height="30" as="geometry" />
        </mxCell>
        <mxCell id="9VRhQlJgTcOn4RRWcXaj-27" style="edgeStyle=orthogonalEdgeStyle;rounded=0;orthogonalLoop=1;jettySize=auto;html=1;entryX=0.048;entryY=0.475;entryDx=0;entryDy=0;entryPerimeter=0;" edge="1" parent="1" source="9VRhQlJgTcOn4RRWcXaj-20" target="9VRhQlJgTcOn4RRWcXaj-25">
          <mxGeometry relative="1" as="geometry" />
        </mxCell>
        <mxCell id="9VRhQlJgTcOn4RRWcXaj-28" value="DEV infra" style="rounded=0;whiteSpace=wrap;html=1;" vertex="1" parent="1">
          <mxGeometry x="900" y="350" width="120" height="60" as="geometry" />
        </mxCell>
        <mxCell id="9VRhQlJgTcOn4RRWcXaj-29" value="" style="rounded=0;whiteSpace=wrap;html=1;" vertex="1" parent="1">
          <mxGeometry x="530" y="494" width="545" height="186" as="geometry" />
        </mxCell>
        <mxCell id="9VRhQlJgTcOn4RRWcXaj-30" value="" style="image;aspect=fixed;html=1;points=[];align=center;fontSize=12;image=img/lib/azure2/storage/Storage_Accounts.svg;" vertex="1" parent="1">
          <mxGeometry x="579.61" y="540" width="50" height="40" as="geometry" />
        </mxCell>
        <mxCell id="9VRhQlJgTcOn4RRWcXaj-31" value="Storage Account&lt;div&gt;sagewoscout&lt;/div&gt;" style="text;html=1;align=center;verticalAlign=middle;whiteSpace=wrap;rounded=0;" vertex="1" parent="1">
          <mxGeometry x="555" y="580" width="100" height="30" as="geometry" />
        </mxCell>
        <mxCell id="9VRhQlJgTcOn4RRWcXaj-32" value="" style="rounded=0;whiteSpace=wrap;html=1;" vertex="1" parent="1">
          <mxGeometry x="585" y="464" width="180" height="60" as="geometry" />
        </mxCell>
        <mxCell id="9VRhQlJgTcOn4RRWcXaj-33" value="" style="image;sketch=0;aspect=fixed;html=1;points=[];align=center;fontSize=12;image=img/lib/mscae/ResourceGroup.svg;" vertex="1" parent="1">
          <mxGeometry x="595" y="474" width="50" height="40" as="geometry" />
        </mxCell>
        <mxCell id="9VRhQlJgTcOn4RRWcXaj-34" value="rg-gewoscout-prod" style="text;html=1;align=center;verticalAlign=middle;whiteSpace=wrap;rounded=0;" vertex="1" parent="1">
          <mxGeometry x="655" y="478" width="105" height="30" as="geometry" />
        </mxCell>
        <mxCell id="9VRhQlJgTcOn4RRWcXaj-35" value="" style="image;aspect=fixed;html=1;points=[];align=center;fontSize=12;image=img/lib/azure2/storage/Storage_Accounts.svg;" vertex="1" parent="1">
          <mxGeometry x="699.61" y="540" width="50" height="40" as="geometry" />
        </mxCell>
        <mxCell id="9VRhQlJgTcOn4RRWcXaj-36" value="&lt;div&gt;container&lt;/div&gt;&lt;div&gt;tfgewoscout&lt;/div&gt;" style="text;html=1;align=center;verticalAlign=middle;whiteSpace=wrap;rounded=0;" vertex="1" parent="1">
          <mxGeometry x="675" y="580" width="100" height="30" as="geometry" />
        </mxCell>
        <mxCell id="9VRhQlJgTcOn4RRWcXaj-37" style="edgeStyle=orthogonalEdgeStyle;rounded=0;orthogonalLoop=1;jettySize=auto;html=1;entryX=0.048;entryY=0.475;entryDx=0;entryDy=0;entryPerimeter=0;" edge="1" parent="1" source="9VRhQlJgTcOn4RRWcXaj-30" target="9VRhQlJgTcOn4RRWcXaj-35">
          <mxGeometry relative="1" as="geometry" />
        </mxCell>
        <mxCell id="9VRhQlJgTcOn4RRWcXaj-38" value="PROD infra" style="rounded=0;whiteSpace=wrap;html=1;" vertex="1" parent="1">
          <mxGeometry x="895" y="580" width="120" height="60" as="geometry" />
        </mxCell>
        <mxCell id="9VRhQlJgTcOn4RRWcXaj-39" style="edgeStyle=orthogonalEdgeStyle;rounded=0;orthogonalLoop=1;jettySize=auto;html=1;entryX=-0.012;entryY=0.525;entryDx=0;entryDy=0;entryPerimeter=0;exitX=0.5;exitY=0;exitDx=0;exitDy=0;" edge="1" parent="1" source="9VRhQlJgTcOn4RRWcXaj-17" target="9VRhQlJgTcOn4RRWcXaj-30">
          <mxGeometry relative="1" as="geometry">
            <Array as="points">
              <mxPoint x="365" y="561" />
            </Array>
          </mxGeometry>
        </mxCell>
        <mxCell id="9VRhQlJgTcOn4RRWcXaj-40" value="store state lock" style="edgeLabel;html=1;align=center;verticalAlign=middle;resizable=0;points=[];" vertex="1" connectable="0" parent="9VRhQlJgTcOn4RRWcXaj-39">
          <mxGeometry x="-0.1561" y="-2" relative="1" as="geometry">
            <mxPoint x="31" as="offset" />
          </mxGeometry>
        </mxCell>
        <mxCell id="9VRhQlJgTcOn4RRWcXaj-41" style="edgeStyle=orthogonalEdgeStyle;rounded=0;orthogonalLoop=1;jettySize=auto;html=1;exitX=0.5;exitY=0;exitDx=0;exitDy=0;entryX=0;entryY=0.5;entryDx=0;entryDy=0;" edge="1" parent="1" source="9VRhQlJgTcOn4RRWcXaj-17" target="9VRhQlJgTcOn4RRWcXaj-38">
          <mxGeometry relative="1" as="geometry">
            <Array as="points">
              <mxPoint x="365" y="730" />
              <mxPoint x="672" y="730" />
              <mxPoint x="672" y="610" />
            </Array>
          </mxGeometry>
        </mxCell>
        <mxCell id="9VRhQlJgTcOn4RRWcXaj-42" value="deploy infrastructure" style="edgeLabel;html=1;align=center;verticalAlign=middle;resizable=0;points=[];" vertex="1" connectable="0" parent="9VRhQlJgTcOn4RRWcXaj-41">
          <mxGeometry x="-0.2353" relative="1" as="geometry">
            <mxPoint as="offset" />
          </mxGeometry>
        </mxCell>
      </root>
    </mxGraphModel>
  </diagram>
</mxfile>
